<svg width="1124" height="225" viewBox="0 0 1124 225" fill="none" xmlns="http://www.w3.org/2000/svg">
<path d="M453.777 21V6.6H459.727C459.867 6.6 460.047 6.60667 460.267 6.62C460.487 6.62667 460.69 6.64667 460.877 6.68C461.71 6.80667 462.397 7.08333 462.937 7.51C463.484 7.93667 463.887 8.47667 464.147 9.13C464.414 9.77667 464.547 10.4967 464.547 11.29C464.547 12.4633 464.25 13.4733 463.657 14.32C463.064 15.16 462.154 15.68 460.927 15.88L459.897 15.97H456.187V21H453.777ZM462.047 21L459.207 15.14L461.657 14.6L464.777 21H462.047ZM456.187 13.72H459.627C459.76 13.72 459.91 13.7133 460.077 13.7C460.244 13.6867 460.397 13.66 460.537 13.62C460.937 13.52 461.25 13.3433 461.477 13.09C461.71 12.8367 461.874 12.55 461.967 12.23C462.067 11.91 462.117 11.5967 462.117 11.29C462.117 10.9833 462.067 10.67 461.967 10.35C461.874 10.0233 461.71 9.73333 461.477 9.48C461.25 9.22667 460.937 9.05 460.537 8.95C460.397 8.91 460.244 8.88667 460.077 8.88C459.91 8.86667 459.76 8.86 459.627 8.86H456.187V13.72ZM471.89 21.3C470.797 21.3 469.837 21.0633 469.01 20.59C468.183 20.1167 467.537 19.46 467.07 18.62C466.61 17.78 466.38 16.8133 466.38 15.72C466.38 14.54 466.607 13.5167 467.06 12.65C467.513 11.7767 468.143 11.1 468.95 10.62C469.757 10.14 470.69 9.9 471.75 9.9C472.87 9.9 473.82 10.1633 474.6 10.69C475.387 11.21 475.97 11.9467 476.35 12.9C476.73 13.8533 476.873 14.9767 476.78 16.27H474.39V15.39C474.383 14.2167 474.177 13.36 473.77 12.82C473.363 12.28 472.723 12.01 471.85 12.01C470.863 12.01 470.13 12.3167 469.65 12.93C469.17 13.5367 468.93 14.4267 468.93 15.6C468.93 16.6933 469.17 17.54 469.65 18.14C470.13 18.74 470.83 19.04 471.75 19.04C472.343 19.04 472.853 18.91 473.28 18.65C473.713 18.3833 474.047 18 474.28 17.5L476.66 18.22C476.247 19.1933 475.607 19.95 474.74 20.49C473.88 21.03 472.93 21.3 471.89 21.3ZM468.17 16.27V14.45H475.6V16.27H468.17ZM483.551 26.1C482.951 26.1 482.375 26.0067 481.821 25.82C481.275 25.6333 480.781 25.3633 480.341 25.01C479.901 24.6633 479.541 24.2433 479.261 23.75L481.481 22.65C481.688 23.0433 481.978 23.3333 482.351 23.52C482.731 23.7133 483.135 23.81 483.561 23.81C484.061 23.81 484.508 23.72 484.901 23.54C485.295 23.3667 485.598 23.1067 485.811 22.76C486.031 22.42 486.135 21.9933 486.121 21.48V18.41H486.421V10.2H488.531V21.52C488.531 21.7933 488.518 22.0533 488.491 22.3C488.471 22.5533 488.435 22.8 488.381 23.04C488.221 23.74 487.915 24.3133 487.461 24.76C487.008 25.2133 486.445 25.55 485.771 25.77C485.105 25.99 484.365 26.1 483.551 26.1ZM483.341 21.3C482.348 21.3 481.481 21.05 480.741 20.55C480.001 20.05 479.428 19.37 479.021 18.51C478.615 17.65 478.411 16.68 478.411 15.6C478.411 14.5067 478.615 13.5333 479.021 12.68C479.435 11.82 480.018 11.1433 480.771 10.65C481.525 10.15 482.411 9.9 483.431 9.9C484.458 9.9 485.318 10.15 486.011 10.65C486.711 11.1433 487.241 11.82 487.601 12.68C487.961 13.54 488.141 14.5133 488.141 15.6C488.141 16.6733 487.961 17.6433 487.601 18.51C487.241 19.37 486.705 20.05 485.991 20.55C485.278 21.05 484.395 21.3 483.341 21.3ZM483.711 19.14C484.358 19.14 484.878 18.9933 485.271 18.7C485.671 18.4 485.961 17.9833 486.141 17.45C486.328 16.9167 486.421 16.3 486.421 15.6C486.421 14.8933 486.328 14.2767 486.141 13.75C485.961 13.2167 485.678 12.8033 485.291 12.51C484.905 12.21 484.405 12.06 483.791 12.06C483.145 12.06 482.611 12.22 482.191 12.54C481.771 12.8533 481.461 13.28 481.261 13.82C481.061 14.3533 480.961 14.9467 480.961 15.6C480.961 16.26 481.058 16.86 481.251 17.4C481.451 17.9333 481.755 18.3567 482.161 18.67C482.568 18.9833 483.085 19.14 483.711 19.14ZM491.536 8.56V6.35H493.946V8.56H491.536ZM491.536 21V10.2H493.946V21H491.536ZM501.111 21.3C499.778 21.3 498.694 21 497.861 20.4C497.028 19.8 496.521 18.9567 496.341 17.87L498.801 17.49C498.928 18.0233 499.208 18.4433 499.641 18.75C500.074 19.0567 500.621 19.21 501.281 19.21C501.861 19.21 502.308 19.0967 502.621 18.87C502.941 18.6367 503.101 18.32 503.101 17.92C503.101 17.6733 503.041 17.4767 502.921 17.33C502.808 17.1767 502.554 17.03 502.161 16.89C501.768 16.75 501.164 16.5733 500.351 16.36C499.444 16.12 498.724 15.8633 498.191 15.59C497.658 15.31 497.274 14.98 497.041 14.6C496.808 14.22 496.691 13.76 496.691 13.22C496.691 12.5467 496.868 11.96 497.221 11.46C497.574 10.96 498.068 10.5767 498.701 10.31C499.334 10.0367 500.081 9.9 500.941 9.9C501.781 9.9 502.524 10.03 503.171 10.29C503.824 10.55 504.351 10.92 504.751 11.4C505.151 11.88 505.398 12.4433 505.491 13.09L503.031 13.53C502.971 13.07 502.761 12.7067 502.401 12.44C502.048 12.1733 501.574 12.0233 500.981 11.99C500.414 11.9567 499.958 12.0433 499.611 12.25C499.264 12.45 499.091 12.7333 499.091 13.1C499.091 13.3067 499.161 13.4833 499.301 13.63C499.441 13.7767 499.721 13.9233 500.141 14.07C500.568 14.2167 501.201 14.3967 502.041 14.61C502.901 14.83 503.588 15.0833 504.101 15.37C504.621 15.65 504.994 15.9867 505.221 16.38C505.454 16.7733 505.571 17.25 505.571 17.81C505.571 18.8967 505.174 19.75 504.381 20.37C503.594 20.99 502.504 21.3 501.111 21.3ZM514.091 21C513.378 21.1333 512.678 21.19 511.991 21.17C511.311 21.1567 510.701 21.0333 510.161 20.8C509.621 20.56 509.211 20.1833 508.931 19.67C508.685 19.2033 508.555 18.7267 508.541 18.24C508.528 17.7533 508.521 17.2033 508.521 16.59V7.2H510.921V16.45C510.921 16.8833 510.925 17.2633 510.931 17.59C510.945 17.9167 511.015 18.1833 511.141 18.39C511.381 18.79 511.765 19.0133 512.291 19.06C512.818 19.1067 513.418 19.08 514.091 18.98V21ZM506.561 12.09V10.2H514.091V12.09H506.561ZM516.414 21V10.2H518.544V12.83L518.284 12.49C518.417 12.13 518.594 11.8033 518.814 11.51C519.04 11.21 519.31 10.9633 519.624 10.77C519.89 10.59 520.184 10.45 520.504 10.35C520.83 10.2433 521.164 10.18 521.504 10.16C521.844 10.1333 522.174 10.1467 522.494 10.2V12.45C522.174 12.3567 521.804 12.3267 521.384 12.36C520.97 12.3933 520.597 12.51 520.264 12.71C519.93 12.89 519.657 13.12 519.444 13.4C519.237 13.68 519.084 14 518.984 14.36C518.884 14.7133 518.834 15.0967 518.834 15.51V21H516.414ZM527.168 21.3C526.388 21.3 525.728 21.1533 525.188 20.86C524.648 20.56 524.238 20.1633 523.958 19.67C523.685 19.1767 523.548 18.6333 523.548 18.04C523.548 17.52 523.635 17.0533 523.808 16.64C523.981 16.22 524.248 15.86 524.608 15.56C524.968 15.2533 525.435 15.0033 526.008 14.81C526.441 14.67 526.948 14.5433 527.528 14.43C528.115 14.3167 528.748 14.2133 529.428 14.12C530.115 14.02 530.831 13.9133 531.578 13.8L530.718 14.29C530.725 13.5433 530.558 12.9933 530.218 12.64C529.878 12.2867 529.305 12.11 528.498 12.11C528.011 12.11 527.541 12.2233 527.088 12.45C526.635 12.6767 526.318 13.0667 526.138 13.62L523.938 12.93C524.205 12.0167 524.711 11.2833 525.458 10.73C526.211 10.1767 527.225 9.9 528.498 9.9C529.458 9.9 530.301 10.0567 531.028 10.37C531.761 10.6833 532.305 11.1967 532.658 11.91C532.851 12.29 532.968 12.68 533.008 13.08C533.048 13.4733 533.068 13.9033 533.068 14.37V21H530.958V18.66L531.308 19.04C530.821 19.82 530.251 20.3933 529.598 20.76C528.951 21.12 528.141 21.3 527.168 21.3ZM527.648 19.38C528.195 19.38 528.661 19.2833 529.048 19.09C529.435 18.8967 529.741 18.66 529.968 18.38C530.201 18.1 530.358 17.8367 530.438 17.59C530.565 17.2833 530.635 16.9333 530.648 16.54C530.668 16.14 530.678 15.8167 530.678 15.57L531.418 15.79C530.691 15.9033 530.068 16.0033 529.548 16.09C529.028 16.1767 528.581 16.26 528.208 16.34C527.835 16.4133 527.505 16.4967 527.218 16.59C526.938 16.69 526.701 16.8067 526.508 16.94C526.315 17.0733 526.165 17.2267 526.058 17.4C525.958 17.5733 525.908 17.7767 525.908 18.01C525.908 18.2767 525.975 18.5133 526.108 18.72C526.241 18.92 526.435 19.08 526.688 19.2C526.948 19.32 527.268 19.38 527.648 19.38ZM542.001 21C541.288 21.1333 540.588 21.19 539.901 21.17C539.221 21.1567 538.611 21.0333 538.071 20.8C537.531 20.56 537.121 20.1833 536.841 19.67C536.595 19.2033 536.465 18.7267 536.451 18.24C536.438 17.7533 536.431 17.2033 536.431 16.59V7.2H538.831V16.45C538.831 16.8833 538.835 17.2633 538.841 17.59C538.855 17.9167 538.925 18.1833 539.051 18.39C539.291 18.79 539.675 19.0133 540.201 19.06C540.728 19.1067 541.328 19.08 542.001 18.98V21ZM534.471 12.09V10.2H542.001V12.09H534.471ZM544.524 8.56V6.35H546.934V8.56H544.524ZM544.524 21V10.2H546.934V21H544.524ZM554.699 21.3C553.619 21.3 552.676 21.0567 551.869 20.57C551.063 20.0833 550.436 19.4133 549.989 18.56C549.549 17.7 549.329 16.7133 549.329 15.6C549.329 14.4667 549.556 13.4733 550.009 12.62C550.463 11.7667 551.093 11.1 551.899 10.62C552.706 10.14 553.639 9.9 554.699 9.9C555.786 9.9 556.733 10.1433 557.539 10.63C558.346 11.1167 558.973 11.79 559.419 12.65C559.866 13.5033 560.089 14.4867 560.089 15.6C560.089 16.72 559.863 17.71 559.409 18.57C558.963 19.4233 558.336 20.0933 557.529 20.58C556.723 21.06 555.779 21.3 554.699 21.3ZM554.699 19.04C555.659 19.04 556.373 18.72 556.839 18.08C557.306 17.44 557.539 16.6133 557.539 15.6C557.539 14.5533 557.303 13.72 556.829 13.1C556.356 12.4733 555.646 12.16 554.699 12.16C554.053 12.16 553.519 12.3067 553.099 12.6C552.686 12.8867 552.379 13.29 552.179 13.81C551.979 14.3233 551.879 14.92 551.879 15.6C551.879 16.6467 552.116 17.4833 552.589 18.11C553.069 18.73 553.773 19.04 554.699 19.04ZM569.763 21V15.8C569.763 15.46 569.739 15.0833 569.693 14.67C569.646 14.2567 569.536 13.86 569.363 13.48C569.196 13.0933 568.943 12.7767 568.603 12.53C568.269 12.2833 567.816 12.16 567.243 12.16C566.936 12.16 566.633 12.21 566.333 12.31C566.033 12.41 565.759 12.5833 565.513 12.83C565.273 13.07 565.079 13.4033 564.933 13.83C564.786 14.25 564.713 14.79 564.713 15.45L563.283 14.84C563.283 13.92 563.459 13.0867 563.813 12.34C564.173 11.5933 564.699 11 565.393 10.56C566.086 10.1133 566.939 9.89 567.953 9.89C568.753 9.89 569.413 10.0233 569.933 10.29C570.453 10.5567 570.866 10.8967 571.173 11.31C571.479 11.7233 571.706 12.1633 571.853 12.63C571.999 13.0967 572.093 13.54 572.133 13.96C572.179 14.3733 572.203 14.71 572.203 14.97V21H569.763ZM562.273 21V10.2H564.423V13.55H564.713V21H562.273ZM578.816 21V6.6H588.116V8.86H581.226V12.41H586.916V14.67H581.226V18.74H588.116V21H578.816ZM597.985 21V15.8C597.985 15.46 597.962 15.0833 597.915 14.67C597.869 14.2567 597.759 13.86 597.585 13.48C597.419 13.0933 597.165 12.7767 596.825 12.53C596.492 12.2833 596.039 12.16 595.465 12.16C595.159 12.16 594.855 12.21 594.555 12.31C594.255 12.41 593.982 12.5833 593.735 12.83C593.495 13.07 593.302 13.4033 593.155 13.83C593.009 14.25 592.935 14.79 592.935 15.45L591.505 14.84C591.505 13.92 591.682 13.0867 592.035 12.34C592.395 11.5933 592.922 11 593.615 10.56C594.309 10.1133 595.162 9.89 596.175 9.89C596.975 9.89 597.635 10.0233 598.155 10.29C598.675 10.5567 599.089 10.8967 599.395 11.31C599.702 11.7233 599.929 12.1633 600.075 12.63C600.222 13.0967 600.315 13.54 600.355 13.96C600.402 14.3733 600.425 14.71 600.425 14.97V21H597.985ZM590.495 21V10.2H592.645V13.55H592.935V21H590.495ZM607.189 21.3C606.196 21.3 605.329 21.05 604.589 20.55C603.849 20.05 603.276 19.37 602.869 18.51C602.462 17.65 602.259 16.68 602.259 15.6C602.259 14.5067 602.462 13.5333 602.869 12.68C603.282 11.82 603.866 11.1433 604.619 10.65C605.372 10.15 606.259 9.9 607.279 9.9C608.306 9.9 609.166 10.15 609.859 10.65C610.559 11.1433 611.089 11.82 611.449 12.68C611.809 13.54 611.989 14.5133 611.989 15.6C611.989 16.6733 611.809 17.6433 611.449 18.51C611.089 19.37 610.552 20.05 609.839 20.55C609.126 21.05 608.242 21.3 607.189 21.3ZM607.559 19.14C608.206 19.14 608.726 18.9933 609.119 18.7C609.519 18.4 609.809 17.9833 609.989 17.45C610.176 16.9167 610.269 16.3 610.269 15.6C610.269 14.8933 610.176 14.2767 609.989 13.75C609.809 13.2167 609.526 12.8033 609.139 12.51C608.752 12.21 608.252 12.06 607.639 12.06C606.992 12.06 606.459 12.22 606.039 12.54C605.619 12.8533 605.309 13.28 605.109 13.82C604.909 14.3533 604.809 14.9467 604.809 15.6C604.809 16.26 604.906 16.86 605.099 17.4C605.299 17.9333 605.602 18.3567 606.009 18.67C606.416 18.9833 606.932 19.14 607.559 19.14ZM610.269 21V13.42H609.969V6.6H612.399V21H610.269ZM619.373 21.3C618.039 21.3 616.956 21 616.123 20.4C615.289 19.8 614.783 18.9567 614.603 17.87L617.063 17.49C617.189 18.0233 617.469 18.4433 617.903 18.75C618.336 19.0567 618.883 19.21 619.543 19.21C620.123 19.21 620.569 19.0967 620.883 18.87C621.203 18.6367 621.363 18.32 621.363 17.92C621.363 17.6733 621.303 17.4767 621.183 17.33C621.069 17.1767 620.816 17.03 620.423 16.89C620.029 16.75 619.426 16.5733 618.613 16.36C617.706 16.12 616.986 15.8633 616.453 15.59C615.919 15.31 615.536 14.98 615.303 14.6C615.069 14.22 614.953 13.76 614.953 13.22C614.953 12.5467 615.129 11.96 615.483 11.46C615.836 10.96 616.329 10.5767 616.963 10.31C617.596 10.0367 618.343 9.9 619.203 9.9C620.043 9.9 620.786 10.03 621.433 10.29C622.086 10.55 622.613 10.92 623.013 11.4C623.413 11.88 623.659 12.4433 623.753 13.09L621.293 13.53C621.233 13.07 621.023 12.7067 620.663 12.44C620.309 12.1733 619.836 12.0233 619.243 11.99C618.676 11.9567 618.219 12.0433 617.873 12.25C617.526 12.45 617.353 12.7333 617.353 13.1C617.353 13.3067 617.423 13.4833 617.563 13.63C617.703 13.7767 617.983 13.9233 618.403 14.07C618.829 14.2167 619.463 14.3967 620.303 14.61C621.163 14.83 621.849 15.0833 622.363 15.37C622.883 15.65 623.256 15.9867 623.483 16.38C623.716 16.7733 623.833 17.25 623.833 17.81C623.833 18.8967 623.436 19.75 622.643 20.37C621.856 20.99 620.766 21.3 619.373 21.3Z" fill="#156890"/>
<path d="M494.601 99L499.561 86.88H493.271V84.6H502.141V86.88L497.201 99H494.601ZM510.865 99C510.151 99.1333 509.451 99.19 508.765 99.17C508.085 99.1567 507.475 99.0333 506.935 98.8C506.395 98.56 505.985 98.1833 505.705 97.67C505.458 97.2033 505.328 96.7267 505.315 96.24C505.301 95.7533 505.295 95.2033 505.295 94.59V85.2H507.695V94.45C507.695 94.8833 507.698 95.2633 507.705 95.59C507.718 95.9167 507.788 96.1833 507.915 96.39C508.155 96.79 508.538 97.0133 509.065 97.06C509.591 97.1067 510.191 97.08 510.865 96.98V99ZM503.335 90.09V88.2H510.865V90.09H503.335ZM520.657 99V93.8C520.657 93.46 520.634 93.0833 520.587 92.67C520.54 92.2567 520.43 91.86 520.257 91.48C520.09 91.0933 519.837 90.7767 519.497 90.53C519.164 90.2833 518.71 90.16 518.137 90.16C517.83 90.16 517.527 90.21 517.227 90.31C516.927 90.41 516.654 90.5833 516.407 90.83C516.167 91.07 515.974 91.4033 515.827 91.83C515.68 92.25 515.607 92.79 515.607 93.45L514.177 92.84C514.177 91.92 514.354 91.0867 514.707 90.34C515.067 89.5933 515.594 89 516.287 88.56C516.98 88.1133 517.834 87.89 518.847 87.89C519.647 87.89 520.307 88.0233 520.827 88.29C521.347 88.5567 521.76 88.8967 522.067 89.31C522.374 89.7233 522.6 90.1633 522.747 90.63C522.894 91.0967 522.987 91.54 523.027 91.96C523.074 92.3733 523.097 92.71 523.097 92.97V99H520.657ZM513.167 99V84.6H515.317V92.18H515.607V99H513.167ZM529.711 99V84.6H531.881L536.861 94.8L541.841 84.6H544.011V99H541.761V89.77L537.341 99H536.381L531.971 89.77V99H529.711ZM549.84 99.3C549.06 99.3 548.4 99.1533 547.86 98.86C547.32 98.56 546.91 98.1633 546.63 97.67C546.357 97.1767 546.22 96.6333 546.22 96.04C546.22 95.52 546.307 95.0533 546.48 94.64C546.653 94.22 546.92 93.86 547.28 93.56C547.64 93.2533 548.107 93.0033 548.68 92.81C549.113 92.67 549.62 92.5433 550.2 92.43C550.787 92.3167 551.42 92.2133 552.1 92.12C552.787 92.02 553.503 91.9133 554.25 91.8L553.39 92.29C553.397 91.5433 553.23 90.9933 552.89 90.64C552.55 90.2867 551.977 90.11 551.17 90.11C550.683 90.11 550.213 90.2233 549.76 90.45C549.307 90.6767 548.99 91.0667 548.81 91.62L546.61 90.93C546.877 90.0167 547.383 89.2833 548.13 88.73C548.883 88.1767 549.897 87.9 551.17 87.9C552.13 87.9 552.973 88.0567 553.7 88.37C554.433 88.6833 554.977 89.1967 555.33 89.91C555.523 90.29 555.64 90.68 555.68 91.08C555.72 91.4733 555.74 91.9033 555.74 92.37V99H553.63V96.66L553.98 97.04C553.493 97.82 552.923 98.3933 552.27 98.76C551.623 99.12 550.813 99.3 549.84 99.3ZM550.32 97.38C550.867 97.38 551.333 97.2833 551.72 97.09C552.107 96.8967 552.413 96.66 552.64 96.38C552.873 96.1 553.03 95.8367 553.11 95.59C553.237 95.2833 553.307 94.9333 553.32 94.54C553.34 94.14 553.35 93.8167 553.35 93.57L554.09 93.79C553.363 93.9033 552.74 94.0033 552.22 94.09C551.7 94.1767 551.253 94.26 550.88 94.34C550.507 94.4133 550.177 94.4967 549.89 94.59C549.61 94.69 549.373 94.8067 549.18 94.94C548.987 95.0733 548.837 95.2267 548.73 95.4C548.63 95.5733 548.58 95.7767 548.58 96.01C548.58 96.2767 548.647 96.5133 548.78 96.72C548.913 96.92 549.107 97.08 549.36 97.2C549.62 97.32 549.94 97.38 550.32 97.38ZM559.158 103.8L561.238 98.09L561.278 99.77L556.568 88.2H559.078L562.418 96.76H561.778L565.028 88.2H567.438L561.418 103.8H559.158Z" fill="#156890"/>
<path d="M839.742 23.3C838.688 23.3 837.738 23.1167 836.892 22.75C836.052 22.3833 835.358 21.86 834.812 21.18C834.272 20.4933 833.928 19.68 833.782 18.74L836.282 18.36C836.495 19.2133 836.932 19.8733 837.592 20.34C838.258 20.8067 839.025 21.04 839.892 21.04C840.405 21.04 840.888 20.96 841.342 20.8C841.795 20.64 842.162 20.4067 842.442 20.1C842.728 19.7933 842.872 19.4167 842.872 18.97C842.872 18.77 842.838 18.5867 842.772 18.42C842.705 18.2467 842.605 18.0933 842.472 17.96C842.345 17.8267 842.178 17.7067 841.972 17.6C841.772 17.4867 841.538 17.39 841.272 17.31L837.552 16.21C837.232 16.1167 836.885 15.9933 836.512 15.84C836.145 15.68 835.795 15.4633 835.462 15.19C835.135 14.91 834.865 14.5567 834.652 14.13C834.445 13.6967 834.342 13.1633 834.342 12.53C834.342 11.6033 834.575 10.8267 835.042 10.2C835.515 9.56667 836.148 9.09333 836.942 8.78C837.742 8.46667 838.628 8.31333 839.602 8.32C840.588 8.32667 841.468 8.49667 842.242 8.83C843.015 9.15667 843.662 9.63333 844.182 10.26C844.702 10.8867 845.068 11.6433 845.282 12.53L842.692 12.98C842.585 12.4733 842.378 12.0433 842.072 11.69C841.772 11.33 841.402 11.0567 840.962 10.87C840.528 10.6833 840.065 10.5833 839.572 10.57C839.092 10.5633 838.645 10.6367 838.232 10.79C837.825 10.9367 837.495 11.15 837.242 11.43C836.995 11.71 836.872 12.0367 836.872 12.41C836.872 12.7633 836.978 13.0533 837.192 13.28C837.405 13.5 837.668 13.6767 837.982 13.81C838.302 13.9367 838.625 14.0433 838.952 14.13L841.532 14.85C841.885 14.9433 842.282 15.07 842.722 15.23C843.162 15.39 843.585 15.6133 843.992 15.9C844.398 16.1867 844.732 16.5633 844.992 17.03C845.258 17.4967 845.392 18.09 845.392 18.81C845.392 19.5567 845.235 20.2133 844.922 20.78C844.615 21.34 844.198 21.8067 843.672 22.18C843.145 22.5533 842.542 22.8333 841.862 23.02C841.188 23.2067 840.482 23.3 839.742 23.3ZM855.026 23V17.8C855.026 17.46 855.003 17.0833 854.956 16.67C854.91 16.2567 854.8 15.86 854.626 15.48C854.46 15.0933 854.206 14.7767 853.866 14.53C853.533 14.2833 853.08 14.16 852.506 14.16C852.2 14.16 851.896 14.21 851.596 14.31C851.296 14.41 851.023 14.5833 850.776 14.83C850.536 15.07 850.343 15.4033 850.196 15.83C850.05 16.25 849.976 16.79 849.976 17.45L848.546 16.84C848.546 15.92 848.723 15.0867 849.076 14.34C849.436 13.5933 849.963 13 850.656 12.56C851.35 12.1133 852.203 11.89 853.216 11.89C854.016 11.89 854.676 12.0233 855.196 12.29C855.716 12.5567 856.13 12.8967 856.436 13.31C856.743 13.7233 856.97 14.1633 857.116 14.63C857.263 15.0967 857.356 15.54 857.396 15.96C857.443 16.3733 857.466 16.71 857.466 16.97V23H855.026ZM847.536 23V8.6H849.686V16.18H849.976V23H847.536ZM864.846 23.3C863.766 23.3 862.822 23.0567 862.016 22.57C861.209 22.0833 860.582 21.4133 860.136 20.56C859.696 19.7 859.476 18.7133 859.476 17.6C859.476 16.4667 859.702 15.4733 860.156 14.62C860.609 13.7667 861.239 13.1 862.046 12.62C862.852 12.14 863.786 11.9 864.846 11.9C865.932 11.9 866.879 12.1433 867.686 12.63C868.492 13.1167 869.119 13.79 869.566 14.65C870.012 15.5033 870.236 16.4867 870.236 17.6C870.236 18.72 870.009 19.71 869.556 20.57C869.109 21.4233 868.482 22.0933 867.676 22.58C866.869 23.06 865.926 23.3 864.846 23.3ZM864.846 21.04C865.806 21.04 866.519 20.72 866.986 20.08C867.452 19.44 867.686 18.6133 867.686 17.6C867.686 16.5533 867.449 15.72 866.976 15.1C866.502 14.4733 865.792 14.16 864.846 14.16C864.199 14.16 863.666 14.3067 863.246 14.6C862.832 14.8867 862.526 15.29 862.326 15.81C862.126 16.3233 862.026 16.92 862.026 17.6C862.026 18.6467 862.262 19.4833 862.736 20.11C863.216 20.73 863.919 21.04 864.846 21.04ZM872.439 23V12.2H874.569V14.83L874.309 14.49C874.442 14.13 874.619 13.8033 874.839 13.51C875.066 13.21 875.336 12.9633 875.649 12.77C875.916 12.59 876.209 12.45 876.529 12.35C876.856 12.2433 877.189 12.18 877.529 12.16C877.869 12.1333 878.199 12.1467 878.519 12.2V14.45C878.199 14.3567 877.829 14.3267 877.409 14.36C876.996 14.3933 876.622 14.51 876.289 14.71C875.956 14.89 875.682 15.12 875.469 15.4C875.262 15.68 875.109 16 875.009 16.36C874.909 16.7133 874.859 17.0967 874.859 17.51V23H872.439ZM886.757 23C886.044 23.1333 885.344 23.19 884.657 23.17C883.977 23.1567 883.367 23.0333 882.827 22.8C882.287 22.56 881.877 22.1833 881.597 21.67C881.351 21.2033 881.221 20.7267 881.207 20.24C881.194 19.7533 881.187 19.2033 881.187 18.59V9.2H883.587V18.45C883.587 18.8833 883.591 19.2633 883.597 19.59C883.611 19.9167 883.681 20.1833 883.807 20.39C884.047 20.79 884.431 21.0133 884.957 21.06C885.484 21.1067 886.084 21.08 886.757 20.98V23ZM879.227 14.09V12.2H886.757V14.09H879.227ZM889.28 23V8.3H891.69V23H889.28ZM894.885 10.56V8.35H897.295V10.56H894.885ZM894.885 23V12.2H897.295V23H894.885ZM904.461 23.3C903.127 23.3 902.044 23 901.211 22.4C900.377 21.8 899.871 20.9567 899.691 19.87L902.151 19.49C902.277 20.0233 902.557 20.4433 902.991 20.75C903.424 21.0567 903.971 21.21 904.631 21.21C905.211 21.21 905.657 21.0967 905.971 20.87C906.291 20.6367 906.451 20.32 906.451 19.92C906.451 19.6733 906.391 19.4767 906.271 19.33C906.157 19.1767 905.904 19.03 905.511 18.89C905.117 18.75 904.514 18.5733 903.701 18.36C902.794 18.12 902.074 17.8633 901.541 17.59C901.007 17.31 900.624 16.98 900.391 16.6C900.157 16.22 900.041 15.76 900.041 15.22C900.041 14.5467 900.217 13.96 900.571 13.46C900.924 12.96 901.417 12.5767 902.051 12.31C902.684 12.0367 903.431 11.9 904.291 11.9C905.131 11.9 905.874 12.03 906.521 12.29C907.174 12.55 907.701 12.92 908.101 13.4C908.501 13.88 908.747 14.4433 908.841 15.09L906.381 15.53C906.321 15.07 906.111 14.7067 905.751 14.44C905.397 14.1733 904.924 14.0233 904.331 13.99C903.764 13.9567 903.307 14.0433 902.961 14.25C902.614 14.45 902.441 14.7333 902.441 15.1C902.441 15.3067 902.511 15.4833 902.651 15.63C902.791 15.7767 903.071 15.9233 903.491 16.07C903.917 16.2167 904.551 16.3967 905.391 16.61C906.251 16.83 906.937 17.0833 907.451 17.37C907.971 17.65 908.344 17.9867 908.571 18.38C908.804 18.7733 908.921 19.25 908.921 19.81C908.921 20.8967 908.524 21.75 907.731 22.37C906.944 22.99 905.854 23.3 904.461 23.3ZM917.441 23C916.728 23.1333 916.028 23.19 915.341 23.17C914.661 23.1567 914.051 23.0333 913.511 22.8C912.971 22.56 912.561 22.1833 912.281 21.67C912.034 21.2033 911.904 20.7267 911.891 20.24C911.878 19.7533 911.871 19.2033 911.871 18.59V9.2H914.271V18.45C914.271 18.8833 914.274 19.2633 914.281 19.59C914.294 19.9167 914.364 20.1833 914.491 20.39C914.731 20.79 915.114 21.0133 915.641 21.06C916.168 21.1067 916.768 21.08 917.441 20.98V23ZM909.911 14.09V12.2H917.441V14.09H909.911ZM924.126 23.3C923.033 23.3 922.073 23.0633 921.246 22.59C920.42 22.1167 919.773 21.46 919.306 20.62C918.846 19.78 918.616 18.8133 918.616 17.72C918.616 16.54 918.843 15.5167 919.296 14.65C919.75 13.7767 920.38 13.1 921.186 12.62C921.993 12.14 922.926 11.9 923.986 11.9C925.106 11.9 926.056 12.1633 926.836 12.69C927.623 13.21 928.206 13.9467 928.586 14.9C928.966 15.8533 929.11 16.9767 929.016 18.27H926.626V17.39C926.62 16.2167 926.413 15.36 926.006 14.82C925.6 14.28 924.96 14.01 924.086 14.01C923.1 14.01 922.366 14.3167 921.886 14.93C921.406 15.5367 921.166 16.4267 921.166 17.6C921.166 18.6933 921.406 19.54 921.886 20.14C922.366 20.74 923.066 21.04 923.986 21.04C924.58 21.04 925.09 20.91 925.516 20.65C925.95 20.3833 926.283 20 926.516 19.5L928.896 20.22C928.483 21.1933 927.843 21.95 926.976 22.49C926.116 23.03 925.166 23.3 924.126 23.3ZM920.406 18.27V16.45H927.836V18.27H920.406ZM935.578 23.3C934.584 23.3 933.718 23.05 932.978 22.55C932.238 22.05 931.664 21.37 931.258 20.51C930.851 19.65 930.648 18.68 930.648 17.6C930.648 16.5067 930.851 15.5333 931.258 14.68C931.671 13.82 932.254 13.1433 933.008 12.65C933.761 12.15 934.648 11.9 935.668 11.9C936.694 11.9 937.554 12.15 938.248 12.65C938.948 13.1433 939.478 13.82 939.838 14.68C940.198 15.54 940.378 16.5133 940.378 17.6C940.378 18.6733 940.198 19.6433 939.838 20.51C939.478 21.37 938.941 22.05 938.228 22.55C937.514 23.05 936.631 23.3 935.578 23.3ZM935.948 21.14C936.594 21.14 937.114 20.9933 937.508 20.7C937.908 20.4 938.198 19.9833 938.378 19.45C938.564 18.9167 938.658 18.3 938.658 17.6C938.658 16.8933 938.564 16.2767 938.378 15.75C938.198 15.2167 937.914 14.8033 937.528 14.51C937.141 14.21 936.641 14.06 936.028 14.06C935.381 14.06 934.848 14.22 934.428 14.54C934.008 14.8533 933.698 15.28 933.498 15.82C933.298 16.3533 933.198 16.9467 933.198 17.6C933.198 18.26 933.294 18.86 933.488 19.4C933.688 19.9333 933.991 20.3567 934.398 20.67C934.804 20.9833 935.321 21.14 935.948 21.14ZM938.658 23V15.42H938.358V8.6H940.788V23H938.658ZM951.055 23V10.86H946.395V8.6H958.125V10.86H953.465V23H951.055ZM963.033 23.3C961.939 23.3 960.979 23.0633 960.153 22.59C959.326 22.1167 958.679 21.46 958.213 20.62C957.753 19.78 957.523 18.8133 957.523 17.72C957.523 16.54 957.749 15.5167 958.203 14.65C958.656 13.7767 959.286 13.1 960.093 12.62C960.899 12.14 961.833 11.9 962.893 11.9C964.013 11.9 964.963 12.1633 965.743 12.69C966.529 13.21 967.113 13.9467 967.493 14.9C967.873 15.8533 968.016 16.9767 967.923 18.27H965.533V17.39C965.526 16.2167 965.319 15.36 964.913 14.82C964.506 14.28 963.866 14.01 962.993 14.01C962.006 14.01 961.273 14.3167 960.793 14.93C960.313 15.5367 960.073 16.4267 960.073 17.6C960.073 18.6933 960.313 19.54 960.793 20.14C961.273 20.74 961.973 21.04 962.893 21.04C963.486 21.04 963.996 20.91 964.423 20.65C964.856 20.3833 965.189 20 965.423 19.5L967.803 20.22C967.389 21.1933 966.749 21.95 965.883 22.49C965.023 23.03 964.073 23.3 963.033 23.3ZM959.313 18.27V16.45H966.743V18.27H959.313ZM972.979 23.3C972.199 23.3 971.539 23.1533 970.999 22.86C970.459 22.56 970.049 22.1633 969.769 21.67C969.495 21.1767 969.359 20.6333 969.359 20.04C969.359 19.52 969.445 19.0533 969.619 18.64C969.792 18.22 970.059 17.86 970.419 17.56C970.779 17.2533 971.245 17.0033 971.819 16.81C972.252 16.67 972.759 16.5433 973.339 16.43C973.925 16.3167 974.559 16.2133 975.239 16.12C975.925 16.02 976.642 15.9133 977.389 15.8L976.529 16.29C976.535 15.5433 976.369 14.9933 976.029 14.64C975.689 14.2867 975.115 14.11 974.309 14.11C973.822 14.11 973.352 14.2233 972.899 14.45C972.445 14.6767 972.129 15.0667 971.949 15.62L969.749 14.93C970.015 14.0167 970.522 13.2833 971.269 12.73C972.022 12.1767 973.035 11.9 974.309 11.9C975.269 11.9 976.112 12.0567 976.839 12.37C977.572 12.6833 978.115 13.1967 978.469 13.91C978.662 14.29 978.779 14.68 978.819 15.08C978.859 15.4733 978.879 15.9033 978.879 16.37V23H976.769V20.66L977.119 21.04C976.632 21.82 976.062 22.3933 975.409 22.76C974.762 23.12 973.952 23.3 972.979 23.3ZM973.459 21.38C974.005 21.38 974.472 21.2833 974.859 21.09C975.245 20.8967 975.552 20.66 975.779 20.38C976.012 20.1 976.169 19.8367 976.249 19.59C976.375 19.2833 976.445 18.9333 976.459 18.54C976.479 18.14 976.489 17.8167 976.489 17.57L977.229 17.79C976.502 17.9033 975.879 18.0033 975.359 18.09C974.839 18.1767 974.392 18.26 974.019 18.34C973.645 18.4133 973.315 18.4967 973.029 18.59C972.749 18.69 972.512 18.8067 972.319 18.94C972.125 19.0733 971.975 19.2267 971.869 19.4C971.769 19.5733 971.719 19.7767 971.719 20.01C971.719 20.2767 971.785 20.5133 971.919 20.72C972.052 20.92 972.245 21.08 972.499 21.2C972.759 21.32 973.079 21.38 973.459 21.38ZM994.452 23V16.44C994.452 15.7 994.269 15.1233 993.902 14.71C993.535 14.29 993.039 14.08 992.412 14.08C992.025 14.08 991.679 14.17 991.372 14.35C991.065 14.5233 990.822 14.7833 990.642 15.13C990.462 15.47 990.372 15.8767 990.372 16.35L989.302 15.72C989.295 14.9733 989.462 14.3167 989.802 13.75C990.149 13.1767 990.615 12.73 991.202 12.41C991.789 12.09 992.442 11.93 993.162 11.93C994.355 11.93 995.269 12.29 995.902 13.01C996.542 13.7233 996.862 14.6633 996.862 15.83V23H994.452ZM981.462 23V12.2H983.592V15.55H983.892V23H981.462ZM987.972 23V16.47C987.972 15.7167 987.789 15.13 987.422 14.71C987.055 14.29 986.555 14.08 985.922 14.08C985.309 14.08 984.815 14.29 984.442 14.71C984.075 15.13 983.892 15.6767 983.892 16.35L982.812 15.63C982.812 14.93 982.985 14.3 983.332 13.74C983.679 13.18 984.145 12.74 984.732 12.42C985.325 12.0933 985.989 11.93 986.722 11.93C987.529 11.93 988.202 12.1033 988.742 12.45C989.289 12.79 989.695 13.2567 989.962 13.85C990.235 14.4367 990.372 15.1 990.372 15.84V23H987.972ZM1003.64 23.3C1002.31 23.3 1001.22 23 1000.39 22.4C999.557 21.8 999.05 20.9567 998.87 19.87L1001.33 19.49C1001.46 20.0233 1001.74 20.4433 1002.17 20.75C1002.6 21.0567 1003.15 21.21 1003.81 21.21C1004.39 21.21 1004.84 21.0967 1005.15 20.87C1005.47 20.6367 1005.63 20.32 1005.63 19.92C1005.63 19.6733 1005.57 19.4767 1005.45 19.33C1005.34 19.1767 1005.08 19.03 1004.69 18.89C1004.3 18.75 1003.69 18.5733 1002.88 18.36C1001.97 18.12 1001.25 17.8633 1000.72 17.59C1000.19 17.31 999.804 16.98 999.57 16.6C999.337 16.22 999.22 15.76 999.22 15.22C999.22 14.5467 999.397 13.96 999.75 13.46C1000.1 12.96 1000.6 12.5767 1001.23 12.31C1001.86 12.0367 1002.61 11.9 1003.47 11.9C1004.31 11.9 1005.05 12.03 1005.7 12.29C1006.35 12.55 1006.88 12.92 1007.28 13.4C1007.68 13.88 1007.93 14.4433 1008.02 15.09L1005.56 15.53C1005.5 15.07 1005.29 14.7067 1004.93 14.44C1004.58 14.1733 1004.1 14.0233 1003.51 13.99C1002.94 13.9567 1002.49 14.0433 1002.14 14.25C1001.79 14.45 1001.62 14.7333 1001.62 15.1C1001.62 15.3067 1001.69 15.4833 1001.83 15.63C1001.97 15.7767 1002.25 15.9233 1002.67 16.07C1003.1 16.2167 1003.73 16.3967 1004.57 16.61C1005.43 16.83 1006.12 17.0833 1006.63 17.37C1007.15 17.65 1007.52 17.9867 1007.75 18.38C1007.98 18.7733 1008.1 19.25 1008.1 19.81C1008.1 20.8967 1007.7 21.75 1006.91 22.37C1006.12 22.99 1005.03 23.3 1003.64 23.3ZM1013.29 23L1017.83 8.6H1021.36L1025.9 23H1023.42L1019.3 10.08H1019.84L1015.77 23H1013.29ZM1015.82 19.88V17.63H1023.38V19.88H1015.82ZM1035.18 23V17.8C1035.18 17.46 1035.16 17.0833 1035.11 16.67C1035.07 16.2567 1034.96 15.86 1034.78 15.48C1034.62 15.0933 1034.36 14.7767 1034.02 14.53C1033.69 14.2833 1033.24 14.16 1032.66 14.16C1032.36 14.16 1032.05 14.21 1031.75 14.31C1031.45 14.41 1031.18 14.5833 1030.93 14.83C1030.69 15.07 1030.5 15.4033 1030.35 15.83C1030.21 16.25 1030.13 16.79 1030.13 17.45L1028.7 16.84C1028.7 15.92 1028.88 15.0867 1029.23 14.34C1029.59 13.5933 1030.12 13 1030.81 12.56C1031.51 12.1133 1032.36 11.89 1033.37 11.89C1034.17 11.89 1034.83 12.0233 1035.35 12.29C1035.87 12.5567 1036.29 12.8967 1036.59 13.31C1036.9 13.7233 1037.13 14.1633 1037.27 14.63C1037.42 15.0967 1037.51 15.54 1037.55 15.96C1037.6 16.3733 1037.62 16.71 1037.62 16.97V23H1035.18ZM1027.69 23V12.2H1029.84V15.55H1030.13V23H1027.69ZM1047.7 23V17.8C1047.7 17.46 1047.68 17.0833 1047.63 16.67C1047.59 16.2567 1047.48 15.86 1047.3 15.48C1047.14 15.0933 1046.88 14.7767 1046.54 14.53C1046.21 14.2833 1045.76 14.16 1045.18 14.16C1044.88 14.16 1044.57 14.21 1044.27 14.31C1043.97 14.41 1043.7 14.5833 1043.45 14.83C1043.21 15.07 1043.02 15.4033 1042.87 15.83C1042.73 16.25 1042.65 16.79 1042.65 17.45L1041.22 16.84C1041.22 15.92 1041.4 15.0867 1041.75 14.34C1042.11 13.5933 1042.64 13 1043.33 12.56C1044.03 12.1133 1044.88 11.89 1045.89 11.89C1046.69 11.89 1047.35 12.0233 1047.87 12.29C1048.39 12.5567 1048.81 12.8967 1049.11 13.31C1049.42 13.7233 1049.65 14.1633 1049.79 14.63C1049.94 15.0967 1050.03 15.54 1050.07 15.96C1050.12 16.3733 1050.14 16.71 1050.14 16.97V23H1047.7ZM1040.21 23V12.2H1042.36V15.55H1042.65V23H1040.21ZM1057.35 23.3C1056.27 23.3 1055.32 23.0567 1054.52 22.57C1053.71 22.0833 1053.08 21.4133 1052.64 20.56C1052.2 19.7 1051.98 18.7133 1051.98 17.6C1051.98 16.4667 1052.2 15.4733 1052.66 14.62C1053.11 13.7667 1053.74 13.1 1054.55 12.62C1055.35 12.14 1056.29 11.9 1057.35 11.9C1058.43 11.9 1059.38 12.1433 1060.19 12.63C1060.99 13.1167 1061.62 13.79 1062.07 14.65C1062.51 15.5033 1062.74 16.4867 1062.74 17.6C1062.74 18.72 1062.51 19.71 1062.06 20.57C1061.61 21.4233 1060.98 22.0933 1060.18 22.58C1059.37 23.06 1058.43 23.3 1057.35 23.3ZM1057.35 21.04C1058.31 21.04 1059.02 20.72 1059.49 20.08C1059.95 19.44 1060.19 18.6133 1060.19 17.6C1060.19 16.5533 1059.95 15.72 1059.48 15.1C1059 14.4733 1058.29 14.16 1057.35 14.16C1056.7 14.16 1056.17 14.3067 1055.75 14.6C1055.33 14.8867 1055.03 15.29 1054.83 15.81C1054.63 16.3233 1054.53 16.92 1054.53 17.6C1054.53 18.6467 1054.76 19.4833 1055.24 20.11C1055.72 20.73 1056.42 21.04 1057.35 21.04ZM1068.99 23.31C1068.19 23.31 1067.53 23.1767 1067.01 22.91C1066.49 22.6433 1066.08 22.3033 1065.77 21.89C1065.46 21.4767 1065.24 21.0367 1065.09 20.57C1064.94 20.1033 1064.85 19.6633 1064.8 19.25C1064.76 18.83 1064.74 18.49 1064.74 18.23V12.2H1067.18V17.4C1067.18 17.7333 1067.2 18.11 1067.25 18.53C1067.3 18.9433 1067.4 19.3433 1067.57 19.73C1067.74 20.11 1068 20.4233 1068.33 20.67C1068.67 20.9167 1069.13 21.04 1069.7 21.04C1070.01 21.04 1070.31 20.99 1070.61 20.89C1070.91 20.79 1071.18 20.62 1071.42 20.38C1071.67 20.1333 1071.86 19.7967 1072.01 19.37C1072.16 18.9433 1072.23 18.4033 1072.23 17.75L1073.66 18.36C1073.66 19.28 1073.48 20.1133 1073.12 20.86C1072.77 21.6067 1072.24 22.2033 1071.55 22.65C1070.86 23.09 1070 23.31 1068.99 23.31ZM1072.52 23V19.65H1072.23V12.2H1074.65V23H1072.52ZM1084.93 23V17.8C1084.93 17.46 1084.91 17.0833 1084.86 16.67C1084.81 16.2567 1084.7 15.86 1084.53 15.48C1084.36 15.0933 1084.11 14.7767 1083.77 14.53C1083.44 14.2833 1082.98 14.16 1082.41 14.16C1082.1 14.16 1081.8 14.21 1081.5 14.31C1081.2 14.41 1080.93 14.5833 1080.68 14.83C1080.44 15.07 1080.25 15.4033 1080.1 15.83C1079.95 16.25 1079.88 16.79 1079.88 17.45L1078.45 16.84C1078.45 15.92 1078.63 15.0867 1078.98 14.34C1079.34 13.5933 1079.87 13 1080.56 12.56C1081.25 12.1133 1082.11 11.89 1083.12 11.89C1083.92 11.89 1084.58 12.0233 1085.1 12.29C1085.62 12.5567 1086.03 12.8967 1086.34 13.31C1086.65 13.7233 1086.87 14.1633 1087.02 14.63C1087.17 15.0967 1087.26 15.54 1087.3 15.96C1087.35 16.3733 1087.37 16.71 1087.37 16.97V23H1084.93ZM1077.44 23V12.2H1079.59V15.55H1079.88V23H1077.44ZM1094.71 23.3C1093.62 23.3 1092.66 23.0633 1091.83 22.59C1091.01 22.1167 1090.36 21.46 1089.89 20.62C1089.43 19.78 1089.2 18.8133 1089.2 17.72C1089.2 16.54 1089.43 15.5167 1089.88 14.65C1090.34 13.7767 1090.97 13.1 1091.77 12.62C1092.58 12.14 1093.51 11.9 1094.57 11.9C1095.69 11.9 1096.64 12.1633 1097.42 12.69C1098.21 13.21 1098.79 13.9467 1099.17 14.9C1099.55 15.8533 1099.7 16.9767 1099.6 18.27H1097.21V17.39C1097.21 16.2167 1097 15.36 1096.59 14.82C1096.19 14.28 1095.55 14.01 1094.67 14.01C1093.69 14.01 1092.95 14.3167 1092.47 14.93C1091.99 15.5367 1091.75 16.4267 1091.75 17.6C1091.75 18.6933 1091.99 19.54 1092.47 20.14C1092.95 20.74 1093.65 21.04 1094.57 21.04C1095.17 21.04 1095.68 20.91 1096.1 20.65C1096.54 20.3833 1096.87 20 1097.1 19.5L1099.48 20.22C1099.07 21.1933 1098.43 21.95 1097.56 22.49C1096.7 23.03 1095.75 23.3 1094.71 23.3ZM1090.99 18.27V16.45H1098.42V18.27H1090.99ZM1106.52 23.3C1105.41 23.3 1104.46 23.0533 1103.67 22.56C1102.89 22.06 1102.28 21.38 1101.86 20.52C1101.45 19.66 1101.24 18.6867 1101.23 17.6C1101.24 16.4933 1101.46 15.5133 1101.88 14.66C1102.32 13.8 1102.93 13.1267 1103.72 12.64C1104.52 12.1467 1105.46 11.9 1106.55 11.9C1107.78 11.9 1108.82 12.21 1109.66 12.83C1110.52 13.4433 1111.07 14.2833 1111.33 15.35L1108.93 16C1108.75 15.42 1108.44 14.97 1108 14.65C1107.57 14.3233 1107.08 14.16 1106.52 14.16C1105.9 14.16 1105.38 14.31 1104.97 14.61C1104.57 14.9033 1104.27 15.31 1104.07 15.83C1103.88 16.35 1103.78 16.94 1103.78 17.6C1103.78 18.6267 1104.01 19.4567 1104.47 20.09C1104.93 20.7233 1105.62 21.04 1106.52 21.04C1107.16 21.04 1107.67 20.8933 1108.03 20.6C1108.41 20.3067 1108.69 19.8833 1108.87 19.33L1111.33 19.88C1111 20.98 1110.42 21.8267 1109.58 22.42C1108.75 23.0067 1107.73 23.3 1106.52 23.3ZM1117.37 23.3C1116.38 23.3 1115.51 23.05 1114.77 22.55C1114.03 22.05 1113.46 21.37 1113.05 20.51C1112.65 19.65 1112.44 18.68 1112.44 17.6C1112.44 16.5067 1112.65 15.5333 1113.05 14.68C1113.47 13.82 1114.05 13.1433 1114.8 12.65C1115.56 12.15 1116.44 11.9 1117.46 11.9C1118.49 11.9 1119.35 12.15 1120.04 12.65C1120.74 13.1433 1121.27 13.82 1121.63 14.68C1121.99 15.54 1122.17 16.5133 1122.17 17.6C1122.17 18.6733 1121.99 19.6433 1121.63 20.51C1121.27 21.37 1120.74 22.05 1120.02 22.55C1119.31 23.05 1118.43 23.3 1117.37 23.3ZM1117.74 21.14C1118.39 21.14 1118.91 20.9933 1119.3 20.7C1119.7 20.4 1119.99 19.9833 1120.17 19.45C1120.36 18.9167 1120.45 18.3 1120.45 17.6C1120.45 16.8933 1120.36 16.2767 1120.17 15.75C1119.99 15.2167 1119.71 14.8033 1119.32 14.51C1118.94 14.21 1118.44 14.06 1117.82 14.06C1117.18 14.06 1116.64 14.22 1116.22 14.54C1115.8 14.8533 1115.49 15.28 1115.29 15.82C1115.09 16.3533 1114.99 16.9467 1114.99 17.6C1114.99 18.26 1115.09 18.86 1115.28 19.4C1115.48 19.9333 1115.79 20.3567 1116.19 20.67C1116.6 20.9833 1117.12 21.14 1117.74 21.14ZM1120.45 23V15.42H1120.15V8.6H1122.58V23H1120.45Z" fill="#156890"/>
<path d="M938.29 101.3C937.336 101.3 936.49 101.107 935.75 100.72C935.01 100.333 934.43 99.7967 934.01 99.11C933.59 98.4233 933.38 97.6367 933.38 96.75C933.38 95.9567 933.563 95.22 933.93 94.54C934.296 93.86 934.833 93.3167 935.54 92.91L935.49 93.68C934.936 93.26 934.506 92.7767 934.2 92.23C933.9 91.6767 933.75 91.0567 933.75 90.37C933.75 89.5433 933.943 88.8267 934.33 88.22C934.723 87.6133 935.26 87.1433 935.94 86.81C936.62 86.47 937.403 86.3 938.29 86.3C939.176 86.3 939.96 86.47 940.64 86.81C941.326 87.1433 941.863 87.6133 942.25 88.22C942.643 88.8267 942.84 89.5433 942.84 90.37C942.84 91.0567 942.693 91.6733 942.4 92.22C942.113 92.7667 941.676 93.26 941.09 93.7L941.08 92.92C941.773 93.3133 942.303 93.8533 942.67 94.54C943.043 95.22 943.23 95.9567 943.23 96.75C943.23 97.6367 943.016 98.4233 942.59 99.11C942.17 99.7967 941.586 100.333 940.84 100.72C940.1 101.107 939.25 101.3 938.29 101.3ZM938.29 99.03C938.996 99.03 939.57 98.8367 940.01 98.45C940.456 98.0633 940.68 97.4967 940.68 96.75C940.68 96.0033 940.46 95.4367 940.02 95.05C939.58 94.6567 939.003 94.46 938.29 94.46C937.583 94.46 937.013 94.6567 936.58 95.05C936.146 95.4367 935.93 96.0033 935.93 96.75C935.93 97.4967 936.146 98.0633 936.58 98.45C937.013 98.8367 937.583 99.03 938.29 99.03ZM938.29 92.17C938.883 92.17 939.363 92.0233 939.73 91.73C940.103 91.43 940.29 90.9767 940.29 90.37C940.29 89.7633 940.103 89.3133 939.73 89.02C939.363 88.72 938.883 88.57 938.29 88.57C937.703 88.57 937.223 88.72 936.85 89.02C936.483 89.3133 936.3 89.7633 936.3 90.37C936.3 90.9767 936.483 91.43 936.85 91.73C937.223 92.0233 937.703 92.17 938.29 92.17ZM952.156 101C951.442 101.133 950.742 101.19 950.056 101.17C949.376 101.157 948.766 101.033 948.226 100.8C947.686 100.56 947.276 100.183 946.996 99.67C946.749 99.2033 946.619 98.7267 946.606 98.24C946.592 97.7533 946.586 97.2033 946.586 96.59V87.2H948.986V96.45C948.986 96.8833 948.989 97.2633 948.996 97.59C949.009 97.9167 949.079 98.1833 949.206 98.39C949.446 98.79 949.829 99.0133 950.356 99.06C950.882 99.1067 951.482 99.08 952.156 98.98V101ZM944.626 92.09V90.2H952.156V92.09H944.626ZM961.948 101V95.8C961.948 95.46 961.925 95.0833 961.878 94.67C961.831 94.2567 961.721 93.86 961.548 93.48C961.381 93.0933 961.128 92.7767 960.788 92.53C960.455 92.2833 960.001 92.16 959.428 92.16C959.121 92.16 958.818 92.21 958.518 92.31C958.218 92.41 957.945 92.5833 957.698 92.83C957.458 93.07 957.265 93.4033 957.118 93.83C956.971 94.25 956.898 94.79 956.898 95.45L955.468 94.84C955.468 93.92 955.645 93.0867 955.998 92.34C956.358 91.5933 956.885 91 957.578 90.56C958.271 90.1133 959.125 89.89 960.138 89.89C960.938 89.89 961.598 90.0233 962.118 90.29C962.638 90.5567 963.051 90.8967 963.358 91.31C963.665 91.7233 963.891 92.1633 964.038 92.63C964.185 93.0967 964.278 93.54 964.318 93.96C964.365 94.3733 964.388 94.71 964.388 94.97V101H961.948ZM954.458 101V86.6H956.608V94.18H956.898V101H954.458ZM971.002 101V86.6H973.172L978.152 96.8L983.132 86.6H985.302V101H983.052V91.77L978.632 101H977.672L973.262 91.77V101H971.002ZM991.131 101.3C990.351 101.3 989.691 101.153 989.151 100.86C988.611 100.56 988.201 100.163 987.921 99.67C987.648 99.1767 987.511 98.6333 987.511 98.04C987.511 97.52 987.598 97.0533 987.771 96.64C987.944 96.22 988.211 95.86 988.571 95.56C988.931 95.2533 989.398 95.0033 989.971 94.81C990.404 94.67 990.911 94.5433 991.491 94.43C992.078 94.3167 992.711 94.2133 993.391 94.12C994.078 94.02 994.794 93.9133 995.541 93.8L994.681 94.29C994.688 93.5433 994.521 92.9933 994.181 92.64C993.841 92.2867 993.268 92.11 992.461 92.11C991.974 92.11 991.504 92.2233 991.051 92.45C990.598 92.6767 990.281 93.0667 990.101 93.62L987.901 92.93C988.168 92.0167 988.674 91.2833 989.421 90.73C990.174 90.1767 991.188 89.9 992.461 89.9C993.421 89.9 994.264 90.0567 994.991 90.37C995.724 90.6833 996.268 91.1967 996.621 91.91C996.814 92.29 996.931 92.68 996.971 93.08C997.011 93.4733 997.031 93.9033 997.031 94.37V101H994.921V98.66L995.271 99.04C994.784 99.82 994.214 100.393 993.561 100.76C992.914 101.12 992.104 101.3 991.131 101.3ZM991.611 99.38C992.158 99.38 992.624 99.2833 993.011 99.09C993.398 98.8967 993.704 98.66 993.931 98.38C994.164 98.1 994.321 97.8367 994.401 97.59C994.528 97.2833 994.598 96.9333 994.611 96.54C994.631 96.14 994.641 95.8167 994.641 95.57L995.381 95.79C994.654 95.9033 994.031 96.0033 993.511 96.09C992.991 96.1767 992.544 96.26 992.171 96.34C991.798 96.4133 991.468 96.4967 991.181 96.59C990.901 96.69 990.664 96.8067 990.471 96.94C990.278 97.0733 990.128 97.2267 990.021 97.4C989.921 97.5733 989.871 97.7767 989.871 98.01C989.871 98.2767 989.938 98.5133 990.071 98.72C990.204 98.92 990.398 99.08 990.651 99.2C990.911 99.32 991.231 99.38 991.611 99.38ZM1000.45 105.8L1002.53 100.09L1002.57 101.77L997.859 90.2H1000.37L1003.71 98.76H1003.07L1006.32 90.2H1008.73L1002.71 105.8H1000.45Z" fill="#156890"/>
<path d="M912.195 219V207.23L909.495 208.88V206.22L912.195 204.6H914.655V219H912.195ZM923.174 219.3C922.221 219.3 921.374 219.107 920.634 218.72C919.894 218.333 919.314 217.797 918.894 217.11C918.474 216.423 918.264 215.637 918.264 214.75C918.264 213.957 918.448 213.22 918.814 212.54C919.181 211.86 919.718 211.317 920.424 210.91L920.374 211.68C919.821 211.26 919.391 210.777 919.084 210.23C918.784 209.677 918.634 209.057 918.634 208.37C918.634 207.543 918.828 206.827 919.214 206.22C919.608 205.613 920.144 205.143 920.824 204.81C921.504 204.47 922.288 204.3 923.174 204.3C924.061 204.3 924.844 204.47 925.524 204.81C926.211 205.143 926.748 205.613 927.134 206.22C927.528 206.827 927.724 207.543 927.724 208.37C927.724 209.057 927.578 209.673 927.284 210.22C926.998 210.767 926.561 211.26 925.974 211.7L925.964 210.92C926.658 211.313 927.188 211.853 927.554 212.54C927.928 213.22 928.114 213.957 928.114 214.75C928.114 215.637 927.901 216.423 927.474 217.11C927.054 217.797 926.471 218.333 925.724 218.72C924.984 219.107 924.134 219.3 923.174 219.3ZM923.174 217.03C923.881 217.03 924.454 216.837 924.894 216.45C925.341 216.063 925.564 215.497 925.564 214.75C925.564 214.003 925.344 213.437 924.904 213.05C924.464 212.657 923.888 212.46 923.174 212.46C922.468 212.46 921.898 212.657 921.464 213.05C921.031 213.437 920.814 214.003 920.814 214.75C920.814 215.497 921.031 216.063 921.464 216.45C921.898 216.837 922.468 217.03 923.174 217.03ZM923.174 210.17C923.768 210.17 924.248 210.023 924.614 209.73C924.988 209.43 925.174 208.977 925.174 208.37C925.174 207.763 924.988 207.313 924.614 207.02C924.248 206.72 923.768 206.57 923.174 206.57C922.588 206.57 922.108 206.72 921.734 207.02C921.368 207.313 921.184 207.763 921.184 208.37C921.184 208.977 921.368 209.43 921.734 209.73C922.108 210.023 922.588 210.17 923.174 210.17ZM937.041 219C936.327 219.133 935.627 219.19 934.941 219.17C934.261 219.157 933.651 219.033 933.111 218.8C932.571 218.56 932.161 218.183 931.881 217.67C931.634 217.203 931.504 216.727 931.491 216.24C931.477 215.753 931.471 215.203 931.471 214.59V205.2H933.871V214.45C933.871 214.883 933.874 215.263 933.881 215.59C933.894 215.917 933.964 216.183 934.091 216.39C934.331 216.79 934.714 217.013 935.241 217.06C935.767 217.107 936.367 217.08 937.041 216.98V219ZM929.511 210.09V208.2H937.041V210.09H929.511ZM946.833 219V213.8C946.833 213.46 946.81 213.083 946.763 212.67C946.716 212.257 946.606 211.86 946.433 211.48C946.266 211.093 946.013 210.777 945.673 210.53C945.34 210.283 944.886 210.16 944.313 210.16C944.006 210.16 943.703 210.21 943.403 210.31C943.103 210.41 942.83 210.583 942.583 210.83C942.343 211.07 942.15 211.403 942.003 211.83C941.856 212.25 941.783 212.79 941.783 213.45L940.353 212.84C940.353 211.92 940.53 211.087 940.883 210.34C941.243 209.593 941.77 209 942.463 208.56C943.156 208.113 944.01 207.89 945.023 207.89C945.823 207.89 946.483 208.023 947.003 208.29C947.523 208.557 947.936 208.897 948.243 209.31C948.55 209.723 948.776 210.163 948.923 210.63C949.07 211.097 949.163 211.54 949.203 211.96C949.25 212.373 949.273 212.71 949.273 212.97V219H946.833ZM939.343 219V204.6H941.493V212.18H941.783V219H939.343ZM955.886 219V204.6H958.056L963.036 214.8L968.016 204.6H970.186V219H967.936V209.77L963.516 219H962.556L958.146 209.77V219H955.886ZM976.016 219.3C975.236 219.3 974.576 219.153 974.036 218.86C973.496 218.56 973.086 218.163 972.806 217.67C972.532 217.177 972.396 216.633 972.396 216.04C972.396 215.52 972.482 215.053 972.656 214.64C972.829 214.22 973.096 213.86 973.456 213.56C973.816 213.253 974.282 213.003 974.856 212.81C975.289 212.67 975.796 212.543 976.376 212.43C976.962 212.317 977.596 212.213 978.276 212.12C978.962 212.02 979.679 211.913 980.426 211.8L979.566 212.29C979.572 211.543 979.406 210.993 979.066 210.64C978.726 210.287 978.152 210.11 977.346 210.11C976.859 210.11 976.389 210.223 975.936 210.45C975.482 210.677 975.166 211.067 974.986 211.62L972.786 210.93C973.052 210.017 973.559 209.283 974.306 208.73C975.059 208.177 976.072 207.9 977.346 207.9C978.306 207.9 979.149 208.057 979.876 208.37C980.609 208.683 981.152 209.197 981.506 209.91C981.699 210.29 981.816 210.68 981.856 211.08C981.896 211.473 981.916 211.903 981.916 212.37V219H979.806V216.66L980.156 217.04C979.669 217.82 979.099 218.393 978.446 218.76C977.799 219.12 976.989 219.3 976.016 219.3ZM976.496 217.38C977.042 217.38 977.509 217.283 977.896 217.09C978.282 216.897 978.589 216.66 978.816 216.38C979.049 216.1 979.206 215.837 979.286 215.59C979.412 215.283 979.482 214.933 979.496 214.54C979.516 214.14 979.526 213.817 979.526 213.57L980.266 213.79C979.539 213.903 978.916 214.003 978.396 214.09C977.876 214.177 977.429 214.26 977.056 214.34C976.682 214.413 976.352 214.497 976.066 214.59C975.786 214.69 975.549 214.807 975.356 214.94C975.162 215.073 975.012 215.227 974.906 215.4C974.806 215.573 974.756 215.777 974.756 216.01C974.756 216.277 974.822 216.513 974.956 216.72C975.089 216.92 975.282 217.08 975.536 217.2C975.796 217.32 976.116 217.38 976.496 217.38ZM985.334 223.8L987.414 218.09L987.454 219.77L982.744 208.2H985.254L988.594 216.76H987.954L991.204 208.2H993.614L987.594 223.8H985.334Z" fill="#156890"/>
<circle cx="85.5" cy="49.5" r="7.5" fill="#F7F719"/>
<path d="M1.48984 21V6.6H7.43984C7.57984 6.6 7.75984 6.60667 7.97984 6.62C8.19984 6.62667 8.40318 6.64667 8.58984 6.68C9.42318 6.80667 10.1098 7.08333 10.6498 7.51C11.1965 7.93667 11.5998 8.47667 11.8598 9.13C12.1265 9.77667 12.2598 10.4967 12.2598 11.29C12.2598 12.4633 11.9632 13.4733 11.3698 14.32C10.7765 15.16 9.86651 15.68 8.63984 15.88L7.60984 15.97H3.89984V21H1.48984ZM9.75984 21L6.91984 15.14L9.36984 14.6L12.4898 21H9.75984ZM3.89984 13.72H7.33984C7.47318 13.72 7.62318 13.7133 7.78984 13.7C7.95651 13.6867 8.10984 13.66 8.24984 13.62C8.64984 13.52 8.96318 13.3433 9.18984 13.09C9.42318 12.8367 9.58651 12.55 9.67984 12.23C9.77984 11.91 9.82984 11.5967 9.82984 11.29C9.82984 10.9833 9.77984 10.67 9.67984 10.35C9.58651 10.0233 9.42318 9.73333 9.18984 9.48C8.96318 9.22667 8.64984 9.05 8.24984 8.95C8.10984 8.91 7.95651 8.88667 7.78984 8.88C7.62318 8.86667 7.47318 8.86 7.33984 8.86H3.89984V13.72ZM19.603 21.3C18.5096 21.3 17.5496 21.0633 16.723 20.59C15.8963 20.1167 15.2496 19.46 14.783 18.62C14.323 17.78 14.093 16.8133 14.093 15.72C14.093 14.54 14.3196 13.5167 14.773 12.65C15.2263 11.7767 15.8563 11.1 16.663 10.62C17.4696 10.14 18.403 9.9 19.463 9.9C20.583 9.9 21.533 10.1633 22.313 10.69C23.0996 11.21 23.683 11.9467 24.063 12.9C24.443 13.8533 24.5863 14.9767 24.493 16.27H22.103V15.39C22.0963 14.2167 21.8896 13.36 21.483 12.82C21.0763 12.28 20.4363 12.01 19.563 12.01C18.5763 12.01 17.843 12.3167 17.363 12.93C16.883 13.5367 16.643 14.4267 16.643 15.6C16.643 16.6933 16.883 17.54 17.363 18.14C17.843 18.74 18.543 19.04 19.463 19.04C20.0563 19.04 20.5663 18.91 20.993 18.65C21.4263 18.3833 21.7596 18 21.993 17.5L24.373 18.22C23.9596 19.1933 23.3196 19.95 22.453 20.49C21.593 21.03 20.643 21.3 19.603 21.3ZM15.883 16.27V14.45H23.313V16.27H15.883ZM31.2642 26.1C30.6642 26.1 30.0876 26.0067 29.5342 25.82C28.9876 25.6333 28.4942 25.3633 28.0542 25.01C27.6142 24.6633 27.2542 24.2433 26.9742 23.75L29.1942 22.65C29.4009 23.0433 29.6909 23.3333 30.0642 23.52C30.4442 23.7133 30.8476 23.81 31.2742 23.81C31.7742 23.81 32.2209 23.72 32.6142 23.54C33.0076 23.3667 33.3109 23.1067 33.5242 22.76C33.7442 22.42 33.8476 21.9933 33.8342 21.48V18.41H34.1342V10.2H36.2442V21.52C36.2442 21.7933 36.2309 22.0533 36.2042 22.3C36.1842 22.5533 36.1476 22.8 36.0942 23.04C35.9342 23.74 35.6276 24.3133 35.1742 24.76C34.7209 25.2133 34.1576 25.55 33.4842 25.77C32.8176 25.99 32.0776 26.1 31.2642 26.1ZM31.0542 21.3C30.0609 21.3 29.1942 21.05 28.4542 20.55C27.7142 20.05 27.1409 19.37 26.7342 18.51C26.3276 17.65 26.1242 16.68 26.1242 15.6C26.1242 14.5067 26.3276 13.5333 26.7342 12.68C27.1476 11.82 27.7309 11.1433 28.4842 10.65C29.2376 10.15 30.1242 9.9 31.1442 9.9C32.1709 9.9 33.0309 10.15 33.7242 10.65C34.4242 11.1433 34.9542 11.82 35.3142 12.68C35.6742 13.54 35.8542 14.5133 35.8542 15.6C35.8542 16.6733 35.6742 17.6433 35.3142 18.51C34.9542 19.37 34.4176 20.05 33.7042 20.55C32.9909 21.05 32.1076 21.3 31.0542 21.3ZM31.4242 19.14C32.0709 19.14 32.5909 18.9933 32.9842 18.7C33.3842 18.4 33.6742 17.9833 33.8542 17.45C34.0409 16.9167 34.1342 16.3 34.1342 15.6C34.1342 14.8933 34.0409 14.2767 33.8542 13.75C33.6742 13.2167 33.3909 12.8033 33.0042 12.51C32.6176 12.21 32.1176 12.06 31.5042 12.06C30.8576 12.06 30.3242 12.22 29.9042 12.54C29.4842 12.8533 29.1742 13.28 28.9742 13.82C28.7742 14.3533 28.6742 14.9467 28.6742 15.6C28.6742 16.26 28.7709 16.86 28.9642 17.4C29.1642 17.9333 29.4676 18.3567 29.8742 18.67C30.2809 18.9833 30.7976 19.14 31.4242 19.14ZM39.2484 8.56V6.35H41.6584V8.56H39.2484ZM39.2484 21V10.2H41.6584V21H39.2484ZM48.8239 21.3C47.4906 21.3 46.4072 21 45.5739 20.4C44.7406 19.8 44.2339 18.9567 44.0539 17.87L46.5139 17.49C46.6406 18.0233 46.9206 18.4433 47.3539 18.75C47.7872 19.0567 48.3339 19.21 48.9939 19.21C49.5739 19.21 50.0206 19.0967 50.3339 18.87C50.6539 18.6367 50.8139 18.32 50.8139 17.92C50.8139 17.6733 50.7539 17.4767 50.6339 17.33C50.5206 17.1767 50.2672 17.03 49.8739 16.89C49.4806 16.75 48.8772 16.5733 48.0639 16.36C47.1572 16.12 46.4372 15.8633 45.9039 15.59C45.3706 15.31 44.9872 14.98 44.7539 14.6C44.5206 14.22 44.4039 13.76 44.4039 13.22C44.4039 12.5467 44.5806 11.96 44.9339 11.46C45.2872 10.96 45.7806 10.5767 46.4139 10.31C47.0472 10.0367 47.7939 9.9 48.6539 9.9C49.4939 9.9 50.2372 10.03 50.8839 10.29C51.5372 10.55 52.0639 10.92 52.4639 11.4C52.8639 11.88 53.1106 12.4433 53.2039 13.09L50.7439 13.53C50.6839 13.07 50.4739 12.7067 50.1139 12.44C49.7606 12.1733 49.2872 12.0233 48.6939 11.99C48.1272 11.9567 47.6706 12.0433 47.3239 12.25C46.9772 12.45 46.8039 12.7333 46.8039 13.1C46.8039 13.3067 46.8739 13.4833 47.0139 13.63C47.1539 13.7767 47.4339 13.9233 47.8539 14.07C48.2806 14.2167 48.9139 14.3967 49.7539 14.61C50.6139 14.83 51.3006 15.0833 51.8139 15.37C52.3339 15.65 52.7072 15.9867 52.9339 16.38C53.1672 16.7733 53.2839 17.25 53.2839 17.81C53.2839 18.8967 52.8872 19.75 52.0939 20.37C51.3072 20.99 50.2172 21.3 48.8239 21.3ZM61.8042 21C61.0909 21.1333 60.3909 21.19 59.7042 21.17C59.0242 21.1567 58.4142 21.0333 57.8742 20.8C57.3342 20.56 56.9242 20.1833 56.6442 19.67C56.3976 19.2033 56.2676 18.7267 56.2542 18.24C56.2409 17.7533 56.2342 17.2033 56.2342 16.59V7.2H58.6342V16.45C58.6342 16.8833 58.6376 17.2633 58.6442 17.59C58.6576 17.9167 58.7276 18.1833 58.8542 18.39C59.0942 18.79 59.4776 19.0133 60.0042 19.06C60.5309 19.1067 61.1309 19.08 61.8042 18.98V21ZM54.2742 12.09V10.2H61.8042V12.09H54.2742ZM64.1266 21V10.2H66.2566V12.83L65.9966 12.49C66.1299 12.13 66.3066 11.8033 66.5266 11.51C66.7532 11.21 67.0232 10.9633 67.3366 10.77C67.6032 10.59 67.8966 10.45 68.2166 10.35C68.5432 10.2433 68.8766 10.18 69.2166 10.16C69.5566 10.1333 69.8866 10.1467 70.2066 10.2V12.45C69.8866 12.3567 69.5166 12.3267 69.0966 12.36C68.6832 12.3933 68.3099 12.51 67.9766 12.71C67.6432 12.89 67.3699 13.12 67.1566 13.4C66.9499 13.68 66.7966 14 66.6966 14.36C66.5966 14.7133 66.5466 15.0967 66.5466 15.51V21H64.1266ZM74.8809 21.3C74.1009 21.3 73.4409 21.1533 72.9009 20.86C72.3609 20.56 71.9509 20.1633 71.6709 19.67C71.3976 19.1767 71.2609 18.6333 71.2609 18.04C71.2609 17.52 71.3476 17.0533 71.5209 16.64C71.6943 16.22 71.9609 15.86 72.3209 15.56C72.6809 15.2533 73.1476 15.0033 73.7209 14.81C74.1543 14.67 74.6609 14.5433 75.2409 14.43C75.8276 14.3167 76.4609 14.2133 77.1409 14.12C77.8276 14.02 78.5443 13.9133 79.2909 13.8L78.4309 14.29C78.4376 13.5433 78.2709 12.9933 77.9309 12.64C77.5909 12.2867 77.0176 12.11 76.2109 12.11C75.7243 12.11 75.2543 12.2233 74.8009 12.45C74.3476 12.6767 74.0309 13.0667 73.8509 13.62L71.6509 12.93C71.9176 12.0167 72.4243 11.2833 73.1709 10.73C73.9243 10.1767 74.9376 9.9 76.2109 9.9C77.1709 9.9 78.0143 10.0567 78.7409 10.37C79.4743 10.6833 80.0176 11.1967 80.3709 11.91C80.5643 12.29 80.6809 12.68 80.7209 13.08C80.7609 13.4733 80.7809 13.9033 80.7809 14.37V21H78.6709V18.66L79.0209 19.04C78.5343 19.82 77.9643 20.3933 77.3109 20.76C76.6643 21.12 75.8543 21.3 74.8809 21.3ZM75.3609 19.38C75.9076 19.38 76.3743 19.2833 76.7609 19.09C77.1476 18.8967 77.4543 18.66 77.6809 18.38C77.9143 18.1 78.0709 17.8367 78.1509 17.59C78.2776 17.2833 78.3476 16.9333 78.3609 16.54C78.3809 16.14 78.3909 15.8167 78.3909 15.57L79.1309 15.79C78.4043 15.9033 77.7809 16.0033 77.2609 16.09C76.7409 16.1767 76.2943 16.26 75.9209 16.34C75.5476 16.4133 75.2176 16.4967 74.9309 16.59C74.6509 16.69 74.4143 16.8067 74.2209 16.94C74.0276 17.0733 73.8776 17.2267 73.7709 17.4C73.6709 17.5733 73.6209 17.7767 73.6209 18.01C73.6209 18.2767 73.6876 18.5133 73.8209 18.72C73.9543 18.92 74.1476 19.08 74.4009 19.2C74.6609 19.32 74.9809 19.38 75.3609 19.38ZM89.7144 21C89.001 21.1333 88.301 21.19 87.6144 21.17C86.9344 21.1567 86.3244 21.0333 85.7844 20.8C85.2444 20.56 84.8344 20.1833 84.5544 19.67C84.3077 19.2033 84.1777 18.7267 84.1644 18.24C84.151 17.7533 84.1444 17.2033 84.1444 16.59V7.2H86.5444V16.45C86.5444 16.8833 86.5477 17.2633 86.5544 17.59C86.5677 17.9167 86.6377 18.1833 86.7644 18.39C87.0044 18.79 87.3877 19.0133 87.9144 19.06C88.441 19.1067 89.041 19.08 89.7144 18.98V21ZM82.1844 12.09V10.2H89.7144V12.09H82.1844ZM92.2367 8.56V6.35H94.6467V8.56H92.2367ZM92.2367 21V10.2H94.6467V21H92.2367ZM102.412 21.3C101.332 21.3 100.389 21.0567 99.5822 20.57C98.7755 20.0833 98.1489 19.4133 97.7022 18.56C97.2622 17.7 97.0422 16.7133 97.0422 15.6C97.0422 14.4667 97.2689 13.4733 97.7222 12.62C98.1755 11.7667 98.8055 11.1 99.6122 10.62C100.419 10.14 101.352 9.9 102.412 9.9C103.499 9.9 104.446 10.1433 105.252 10.63C106.059 11.1167 106.686 11.79 107.132 12.65C107.579 13.5033 107.802 14.4867 107.802 15.6C107.802 16.72 107.576 17.71 107.122 18.57C106.676 19.4233 106.049 20.0933 105.242 20.58C104.436 21.06 103.492 21.3 102.412 21.3ZM102.412 19.04C103.372 19.04 104.086 18.72 104.552 18.08C105.019 17.44 105.252 16.6133 105.252 15.6C105.252 14.5533 105.016 13.72 104.542 13.1C104.069 12.4733 103.359 12.16 102.412 12.16C101.766 12.16 101.232 12.3067 100.812 12.6C100.399 12.8867 100.092 13.29 99.8922 13.81C99.6922 14.3233 99.5922 14.92 99.5922 15.6C99.5922 16.6467 99.8289 17.4833 100.302 18.11C100.782 18.73 101.486 19.04 102.412 19.04ZM117.475 21V15.8C117.475 15.46 117.452 15.0833 117.405 14.67C117.359 14.2567 117.249 13.86 117.075 13.48C116.909 13.0933 116.655 12.7767 116.315 12.53C115.982 12.2833 115.529 12.16 114.955 12.16C114.649 12.16 114.345 12.21 114.045 12.31C113.745 12.41 113.472 12.5833 113.225 12.83C112.985 13.07 112.792 13.4033 112.645 13.83C112.499 14.25 112.425 14.79 112.425 15.45L110.995 14.84C110.995 13.92 111.172 13.0867 111.525 12.34C111.885 11.5933 112.412 11 113.105 10.56C113.799 10.1133 114.652 9.89 115.665 9.89C116.465 9.89 117.125 10.0233 117.645 10.29C118.165 10.5567 118.579 10.8967 118.885 11.31C119.192 11.7233 119.419 12.1633 119.565 12.63C119.712 13.0967 119.805 13.54 119.845 13.96C119.892 14.3733 119.915 14.71 119.915 14.97V21H117.475ZM109.985 21V10.2H112.135V13.55H112.425V21H109.985ZM131.859 21.3C130.806 21.3 129.856 21.1167 129.009 20.75C128.169 20.3833 127.476 19.86 126.929 19.18C126.389 18.4933 126.046 17.68 125.899 16.74L128.399 16.36C128.612 17.2133 129.049 17.8733 129.709 18.34C130.376 18.8067 131.142 19.04 132.009 19.04C132.522 19.04 133.006 18.96 133.459 18.8C133.912 18.64 134.279 18.4067 134.559 18.1C134.846 17.7933 134.989 17.4167 134.989 16.97C134.989 16.77 134.956 16.5867 134.889 16.42C134.822 16.2467 134.722 16.0933 134.589 15.96C134.462 15.8267 134.296 15.7067 134.089 15.6C133.889 15.4867 133.656 15.39 133.389 15.31L129.669 14.21C129.349 14.1167 129.002 13.9933 128.629 13.84C128.262 13.68 127.912 13.4633 127.579 13.19C127.252 12.91 126.982 12.5567 126.769 12.13C126.562 11.6967 126.459 11.1633 126.459 10.53C126.459 9.60333 126.692 8.82667 127.159 8.2C127.632 7.56667 128.266 7.09333 129.059 6.78C129.859 6.46667 130.746 6.31333 131.719 6.32C132.706 6.32667 133.586 6.49667 134.359 6.83C135.132 7.15667 135.779 7.63333 136.299 8.26C136.819 8.88667 137.186 9.64333 137.399 10.53L134.809 10.98C134.702 10.4733 134.496 10.0433 134.189 9.69C133.889 9.33 133.519 9.05667 133.079 8.87C132.646 8.68333 132.182 8.58333 131.689 8.57C131.209 8.56333 130.762 8.63667 130.349 8.79C129.942 8.93667 129.612 9.15 129.359 9.43C129.112 9.71 128.989 10.0367 128.989 10.41C128.989 10.7633 129.096 11.0533 129.309 11.28C129.522 11.5 129.786 11.6767 130.099 11.81C130.419 11.9367 130.742 12.0433 131.069 12.13L133.649 12.85C134.002 12.9433 134.399 13.07 134.839 13.23C135.279 13.39 135.702 13.6133 136.109 13.9C136.516 14.1867 136.849 14.5633 137.109 15.03C137.376 15.4967 137.509 16.09 137.509 16.81C137.509 17.5567 137.352 18.2133 137.039 18.78C136.732 19.34 136.316 19.8067 135.789 20.18C135.262 20.5533 134.659 20.8333 133.979 21.02C133.306 21.2067 132.599 21.3 131.859 21.3ZM146.003 21C145.29 21.1333 144.59 21.19 143.903 21.17C143.223 21.1567 142.613 21.0333 142.073 20.8C141.533 20.56 141.123 20.1833 140.843 19.67C140.597 19.2033 140.467 18.7267 140.453 18.24C140.44 17.7533 140.433 17.2033 140.433 16.59V7.2H142.833V16.45C142.833 16.8833 142.837 17.2633 142.843 17.59C142.857 17.9167 142.927 18.1833 143.053 18.39C143.293 18.79 143.677 19.0133 144.203 19.06C144.73 19.1067 145.33 19.08 146.003 18.98V21ZM138.473 12.09V10.2H146.003V12.09H138.473ZM151.346 21.3C150.566 21.3 149.906 21.1533 149.366 20.86C148.826 20.56 148.416 20.1633 148.136 19.67C147.862 19.1767 147.726 18.6333 147.726 18.04C147.726 17.52 147.812 17.0533 147.986 16.64C148.159 16.22 148.426 15.86 148.786 15.56C149.146 15.2533 149.612 15.0033 150.186 14.81C150.619 14.67 151.126 14.5433 151.706 14.43C152.292 14.3167 152.926 14.2133 153.606 14.12C154.292 14.02 155.009 13.9133 155.756 13.8L154.896 14.29C154.902 13.5433 154.736 12.9933 154.396 12.64C154.056 12.2867 153.482 12.11 152.676 12.11C152.189 12.11 151.719 12.2233 151.266 12.45C150.812 12.6767 150.496 13.0667 150.316 13.62L148.116 12.93C148.382 12.0167 148.889 11.2833 149.636 10.73C150.389 10.1767 151.402 9.9 152.676 9.9C153.636 9.9 154.479 10.0567 155.206 10.37C155.939 10.6833 156.482 11.1967 156.836 11.91C157.029 12.29 157.146 12.68 157.186 13.08C157.226 13.4733 157.246 13.9033 157.246 14.37V21H155.136V18.66L155.486 19.04C154.999 19.82 154.429 20.3933 153.776 20.76C153.129 21.12 152.319 21.3 151.346 21.3ZM151.826 19.38C152.372 19.38 152.839 19.2833 153.226 19.09C153.612 18.8967 153.919 18.66 154.146 18.38C154.379 18.1 154.536 17.8367 154.616 17.59C154.742 17.2833 154.812 16.9333 154.826 16.54C154.846 16.14 154.856 15.8167 154.856 15.57L155.596 15.79C154.869 15.9033 154.246 16.0033 153.726 16.09C153.206 16.1767 152.759 16.26 152.386 16.34C152.012 16.4133 151.682 16.4967 151.396 16.59C151.116 16.69 150.879 16.8067 150.686 16.94C150.492 17.0733 150.342 17.2267 150.236 17.4C150.136 17.5733 150.086 17.7767 150.086 18.01C150.086 18.2767 150.152 18.5133 150.286 18.72C150.419 18.92 150.612 19.08 150.866 19.2C151.126 19.32 151.446 19.38 151.826 19.38ZM159.849 21V10.2H161.979V12.83L161.719 12.49C161.853 12.13 162.029 11.8033 162.249 11.51C162.476 11.21 162.746 10.9633 163.059 10.77C163.326 10.59 163.619 10.45 163.939 10.35C164.266 10.2433 164.599 10.18 164.939 10.16C165.279 10.1333 165.609 10.1467 165.929 10.2V12.45C165.609 12.3567 165.239 12.3267 164.819 12.36C164.406 12.3933 164.033 12.51 163.699 12.71C163.366 12.89 163.093 13.12 162.879 13.4C162.673 13.68 162.519 14 162.419 14.36C162.319 14.7133 162.269 15.0967 162.269 15.51V21H159.849ZM174.168 21C173.454 21.1333 172.754 21.19 172.068 21.17C171.388 21.1567 170.778 21.0333 170.238 20.8C169.698 20.56 169.288 20.1833 169.007 19.67C168.761 19.2033 168.631 18.7267 168.618 18.24C168.604 17.7533 168.598 17.2033 168.598 16.59V7.2H170.998V16.45C170.998 16.8833 171.001 17.2633 171.008 17.59C171.021 17.9167 171.091 18.1833 171.218 18.39C171.458 18.79 171.841 19.0133 172.368 19.06C172.894 19.1067 173.494 19.08 174.168 18.98V21ZM166.638 12.09V10.2H174.168V12.09H166.638ZM180.66 21.3C179.327 21.3 178.243 21 177.41 20.4C176.577 19.8 176.07 18.9567 175.89 17.87L178.35 17.49C178.477 18.0233 178.757 18.4433 179.19 18.75C179.623 19.0567 180.17 19.21 180.83 19.21C181.41 19.21 181.857 19.0967 182.17 18.87C182.49 18.6367 182.65 18.32 182.65 17.92C182.65 17.6733 182.59 17.4767 182.47 17.33C182.357 17.1767 182.103 17.03 181.71 16.89C181.317 16.75 180.713 16.5733 179.9 16.36C178.993 16.12 178.273 15.8633 177.74 15.59C177.207 15.31 176.823 14.98 176.59 14.6C176.357 14.22 176.24 13.76 176.24 13.22C176.24 12.5467 176.417 11.96 176.77 11.46C177.123 10.96 177.617 10.5767 178.25 10.31C178.883 10.0367 179.63 9.9 180.49 9.9C181.33 9.9 182.073 10.03 182.72 10.29C183.373 10.55 183.9 10.92 184.3 11.4C184.7 11.88 184.947 12.4433 185.04 13.09L182.58 13.53C182.52 13.07 182.31 12.7067 181.95 12.44C181.597 12.1733 181.123 12.0233 180.53 11.99C179.963 11.9567 179.507 12.0433 179.16 12.25C178.813 12.45 178.64 12.7333 178.64 13.1C178.64 13.3067 178.71 13.4833 178.85 13.63C178.99 13.7767 179.27 13.9233 179.69 14.07C180.117 14.2167 180.75 14.3967 181.59 14.61C182.45 14.83 183.137 15.0833 183.65 15.37C184.17 15.65 184.543 15.9867 184.77 16.38C185.003 16.7733 185.12 17.25 185.12 17.81C185.12 18.8967 184.723 19.75 183.93 20.37C183.143 20.99 182.053 21.3 180.66 21.3Z" fill="#156890"/>
<path d="M50.6684 99.27C49.9484 99.27 49.2684 99.13 48.6284 98.85C47.9884 98.57 47.4318 98.1733 46.9584 97.66C46.4918 97.1467 46.1551 96.54 45.9484 95.84L48.2784 95.21C48.4451 95.7833 48.7484 96.2267 49.1884 96.54C49.6351 96.8467 50.1251 96.9967 50.6584 96.99C51.1318 96.99 51.5551 96.88 51.9284 96.66C52.3018 96.44 52.5951 96.1433 52.8084 95.77C53.0218 95.39 53.1284 94.9667 53.1284 94.5C53.1284 93.7867 52.8984 93.19 52.4384 92.71C51.9784 92.23 51.3851 91.99 50.6584 91.99C50.4384 91.99 50.2218 92.02 50.0084 92.08C49.8018 92.14 49.6018 92.2233 49.4084 92.33L48.3084 90.43L53.1484 86.29L53.3584 86.87H46.5084V84.6H55.3384V86.88L51.4484 90.62L51.4284 89.91C52.3018 89.97 53.0451 90.2133 53.6584 90.64C54.2784 91.0667 54.7518 91.6167 55.0784 92.29C55.4118 92.9633 55.5784 93.7 55.5784 94.5C55.5784 95.4067 55.3551 96.22 54.9084 96.94C54.4684 97.66 53.8751 98.23 53.1284 98.65C52.3884 99.0633 51.5684 99.27 50.6684 99.27ZM58.1695 99V88.2H60.2995V90.83L60.0395 90.49C60.1729 90.13 60.3495 89.8033 60.5695 89.51C60.7962 89.21 61.0662 88.9633 61.3795 88.77C61.6462 88.59 61.9395 88.45 62.2595 88.35C62.5862 88.2433 62.9195 88.18 63.2595 88.16C63.5995 88.1333 63.9295 88.1467 64.2495 88.2V90.45C63.9295 90.3567 63.5595 90.3267 63.1395 90.36C62.7262 90.3933 62.3529 90.51 62.0195 90.71C61.6862 90.89 61.4129 91.12 61.1995 91.4C60.9929 91.68 60.8395 92 60.7395 92.36C60.6395 92.7133 60.5895 93.0967 60.5895 93.51V99H58.1695ZM70.2925 99.3C69.2992 99.3 68.4325 99.05 67.6925 98.55C66.9525 98.05 66.3792 97.37 65.9725 96.51C65.5658 95.65 65.3625 94.68 65.3625 93.6C65.3625 92.5067 65.5658 91.5333 65.9725 90.68C66.3858 89.82 66.9692 89.1433 67.7225 88.65C68.4758 88.15 69.3625 87.9 70.3825 87.9C71.4092 87.9 72.2692 88.15 72.9625 88.65C73.6625 89.1433 74.1925 89.82 74.5525 90.68C74.9125 91.54 75.0925 92.5133 75.0925 93.6C75.0925 94.6733 74.9125 95.6433 74.5525 96.51C74.1925 97.37 73.6558 98.05 72.9425 98.55C72.2292 99.05 71.3458 99.3 70.2925 99.3ZM70.6625 97.14C71.3092 97.14 71.8292 96.9933 72.2225 96.7C72.6225 96.4 72.9125 95.9833 73.0925 95.45C73.2792 94.9167 73.3725 94.3 73.3725 93.6C73.3725 92.8933 73.2792 92.2767 73.0925 91.75C72.9125 91.2167 72.6292 90.8033 72.2425 90.51C71.8558 90.21 71.3558 90.06 70.7425 90.06C70.0958 90.06 69.5625 90.22 69.1425 90.54C68.7225 90.8533 68.4125 91.28 68.2125 91.82C68.0125 92.3533 67.9125 92.9467 67.9125 93.6C67.9125 94.26 68.0092 94.86 68.2025 95.4C68.4025 95.9333 68.7058 96.3567 69.1125 96.67C69.5192 96.9833 70.0358 97.14 70.6625 97.14ZM73.3725 99V91.42H73.0725V84.6H75.5025V99H73.3725ZM81.3102 99L85.8502 84.6H89.3802L93.9202 99H91.4402L87.3202 86.08H87.8602L83.7902 99H81.3102ZM83.8402 95.88V93.63H91.4002V95.88H83.8402ZM100.918 99.3C99.8648 99.3 98.9815 99.05 98.2681 98.55C97.5548 98.05 97.0181 97.37 96.6581 96.51C96.2981 95.6433 96.1181 94.6733 96.1181 93.6C96.1181 92.5133 96.2981 91.54 96.6581 90.68C97.0181 89.82 97.5448 89.1433 98.2381 88.65C98.9381 88.15 99.8015 87.9 100.828 87.9C101.848 87.9 102.731 88.15 103.478 88.65C104.231 89.1433 104.815 89.82 105.228 90.68C105.641 91.5333 105.848 92.5067 105.848 93.6C105.848 94.68 105.645 95.65 105.238 96.51C104.831 97.37 104.258 98.05 103.518 98.55C102.778 99.05 101.911 99.3 100.918 99.3ZM95.7081 103.8V88.2H97.8381V95.78H98.1381V103.8H95.7081ZM100.548 97.14C101.175 97.14 101.691 96.9833 102.098 96.67C102.505 96.3567 102.805 95.9333 102.998 95.4C103.198 94.86 103.298 94.26 103.298 93.6C103.298 92.9467 103.198 92.3533 102.998 91.82C102.798 91.28 102.488 90.8533 102.068 90.54C101.648 90.22 101.115 90.06 100.468 90.06C99.8548 90.06 99.3548 90.21 98.9681 90.51C98.5815 90.8033 98.2948 91.2167 98.1081 91.75C97.9281 92.2767 97.8381 92.8933 97.8381 93.6C97.8381 94.3 97.9281 94.9167 98.1081 95.45C98.2948 95.9833 98.5848 96.4 98.9781 96.7C99.3781 96.9933 99.9015 97.14 100.548 97.14ZM108.052 99V88.2H110.182V90.83L109.922 90.49C110.056 90.13 110.232 89.8033 110.452 89.51C110.679 89.21 110.949 88.9633 111.262 88.77C111.529 88.59 111.822 88.45 112.142 88.35C112.469 88.2433 112.802 88.18 113.142 88.16C113.482 88.1333 113.812 88.1467 114.132 88.2V90.45C113.812 90.3567 113.442 90.3267 113.022 90.36C112.609 90.3933 112.236 90.51 111.902 90.71C111.569 90.89 111.296 91.12 111.082 91.4C110.876 91.68 110.722 92 110.622 92.36C110.522 92.7133 110.472 93.0967 110.472 93.51V99H108.052ZM116.241 86.56V84.35H118.651V86.56H116.241ZM116.241 99V88.2H118.651V99H116.241ZM121.846 99V84.3H124.256V99H121.846Z" fill="#156890"/>
<g filter="url(#filter0_d_28_113)">
<path d="M522.993 51.5C523.821 51.5038 524.496 50.8354 524.5 50.0069C524.504 49.1785 523.835 48.5039 523.007 48.5L522.993 51.5ZM90.9931 49.5L522.993 51.5L523.007 48.5L91.0069 46.5L90.9931 49.5Z" fill="#0E2D3D"/>
</g>
<path d="M961.993 53.5C962.821 53.5038 963.496 52.8354 963.5 52.0069C963.504 51.1785 962.835 50.5039 962.007 50.5L961.993 53.5ZM529.993 51.5L961.993 53.5L962.007 50.5L530.007 48.5L529.993 51.5Z" fill="#0E2D3D"/>
<path d="M966.164 185.868L981.165 194.528L981.164 177.207L966.164 185.868ZM995.139 185.868L995.139 184.368L995.139 185.868ZM1068.78 154.67L1067.79 153.545L1068.78 154.67ZM1062.07 160.581L1061.08 159.456L1062.07 160.581ZM1065.5 73.4983L1064.49 74.6132L1065.5 73.4983ZM1078.92 142.491L1080.21 143.263L1078.92 142.491ZM966.165 52.5298L994.044 52.5298L994.044 49.5298L966.165 49.5298L966.165 52.5298ZM1016.08 54.5762L1028.76 56.9519L1029.31 54.0032L1016.63 51.6275L1016.08 54.5762ZM1064.49 74.6132L1067.14 76.9958L1069.15 74.766L1066.5 72.3833L1064.49 74.6132ZM1077.84 90.4156L1078.44 91.4936L1081.06 90.0335L1080.46 88.9555L1077.84 90.4156ZM1067.79 153.545L1061.08 159.456L1063.06 161.706L1069.77 155.795L1067.79 153.545ZM995.139 184.368L979.664 184.368L979.664 187.368L995.139 187.368L995.139 184.368ZM1023.42 180.272C1014.24 182.988 1004.72 184.368 995.139 184.368L995.139 187.368C1005 187.368 1014.82 185.947 1024.28 183.149L1023.42 180.272ZM1077.63 141.72C1074.98 146.144 1071.66 150.133 1067.79 153.545L1069.77 155.795C1073.87 152.179 1077.39 147.952 1080.21 143.263L1077.63 141.72ZM1067.14 76.9958C1071.42 80.8493 1075.04 85.3836 1077.84 90.4156L1080.46 88.9555C1077.5 83.6348 1073.67 78.8404 1069.15 74.766L1067.14 76.9958ZM994.044 52.5298C1001.44 52.5298 1008.81 53.2148 1016.08 54.5762L1016.63 51.6275C1009.18 50.232 1001.62 49.5298 994.044 49.5298L994.044 52.5298ZM1061.08 159.456C1050.19 169.052 1037.34 176.156 1023.42 180.272L1024.28 183.149C1038.61 178.909 1051.85 171.591 1063.06 161.706L1061.08 159.456ZM1028.76 56.9519C1042.07 59.4454 1054.43 65.5559 1064.49 74.6132L1066.5 72.3833C1056.03 62.9574 1043.16 56.5982 1029.31 54.0032L1028.76 56.9519ZM1078.44 91.4936C1087.18 107.174 1086.87 126.328 1077.63 141.72L1080.21 143.263C1089.99 126.951 1090.32 106.652 1081.06 90.0335L1078.44 91.4936Z" fill="#0E2D3D"/>
<circle cx="970.5" cy="51.5" r="7.5" fill="#F7F719"/>
<circle cx="530.5" cy="49.5" r="7.5" fill="#F7F719"/>
<defs>
<filter id="filter0_d_28_113" x="86.993" y="46.5" width="441.507" height="13" filterUnits="userSpaceOnUse" color-interpolation-filters="sRGB">
<feFlood flood-opacity="0" result="BackgroundImageFix"/>
<feColorMatrix in="SourceAlpha" type="matrix" values="0 0 0 0 0 0 0 0 0 0 0 0 0 0 0 0 0 0 127 0" result="hardAlpha"/>
<feOffset dy="4"/>
<feGaussianBlur stdDeviation="2"/>
<feComposite in2="hardAlpha" operator="out"/>
<feColorMatrix type="matrix" values="0 0 0 0 0 0 0 0 0 0 0 0 0 0 0 0 0 0 0.25 0"/>
<feBlend mode="normal" in2="BackgroundImageFix" result="effect1_dropShadow_28_113"/>
<feBlend mode="normal" in="SourceGraphic" in2="effect1_dropShadow_28_113" result="shape"/>
</filter>
</defs>
</svg>
